<?xml version="1.0" encoding="UTF-8"?>
<svg width="120px" height="37px" viewBox="0 0 120 37" version="1.1" xmlns="http://www.w3.org/2000/svg" xmlns:xlink="http://www.w3.org/1999/xlink">
    <!-- Generator: Sketch 51.2 (57519) - http://www.bohemiancoding.com/sketch -->
    <title>Role_IQ_Final</title>
    <desc>Created with Sketch.</desc>
    <defs>
        <linearGradient x1="671.374253%" y1="120.770315%" x2="-207.876154%" y2="20.6294035%" id="linearGradient-1">
            <stop stop-color="#F05A29" offset="0%"></stop>
            <stop stop-color="#E80A89" offset="100%"></stop>
        </linearGradient>
        <linearGradient x1="92.5337729%" y1="87.6039837%" x2="-35.7553482%" y2="-11.5269495%" id="linearGradient-2">
            <stop stop-color="#F05A29" offset="0%"></stop>
            <stop stop-color="#E80A89" offset="100%"></stop>
        </linearGradient>
    </defs>
    <g id="Symbols" stroke="none" stroke-width="1" fill="none" fill-rule="evenodd">
        <g id="Role-IQ-Detail-Header-/-Pending" transform="translate(-955.000000, -15.000000)" fill-rule="nonzero">
            <g id="Role_IQ_Final" transform="translate(955.000000, 15.000000)">
                <rect id="Rectangle-path" fill="url(#linearGradient-1)" x="67.4066667" y="0.753333333" width="6.13666667" height="35.4833333" rx="3.06833333"></rect>
                <path d="M117.103333,30.1066667 L109.506667,30.1066667 C110.059481,29.6574845 110.57968,29.1695893 111.063333,28.6466667 C111.837419,27.796098 112.500489,26.8507758 113.036667,25.8333333 C113.640243,24.6981909 114.11326,23.4983158 114.446667,22.2566667 C114.818637,20.8426762 115.00024,19.3853684 114.986667,17.9233333 C115.019112,15.4287132 114.549818,12.9530188 113.606667,10.6433333 C112.721638,8.51161008 111.402547,6.58746171 109.733333,4.99333333 C108.028704,3.39269797 106.023277,2.14638747 103.833333,1.32666667 C101.468288,0.438730911 98.959453,-0.00427057191 96.4333333,0.02 C93.8954367,-0.0107080119 91.3735192,0.425430049 88.9933333,1.30666667 C86.7888692,2.12510698 84.7679177,3.37120936 83.0466667,4.97333333 C81.3602475,6.56337231 80.0240156,8.48768236 79.1233333,10.6233333 C78.1635013,12.9288642 77.6848243,15.4061877 77.7166667,17.9033333 C77.6743653,20.4907687 78.1269269,23.0624501 79.05,25.48 C79.8798743,27.6094533 81.1694218,29.5295474 82.8266667,31.1033333 C84.2150354,32.3891046 85.8197126,33.4193931 87.5666667,34.1466667 C89.1766667,35.1466667 92.8366667,35.8633333 93.97,35.8633333 L117.103333,35.8633333 C118.576093,35.8633333 119.77,34.669426 119.77,33.1966667 L119.77,32.76 C119.762662,31.2924503 118.570901,30.1066483 117.103333,30.1066667 Z M96.3266667,30.6733333 C89.5533333,30.6733333 84.0633333,24.9833333 84.0633333,17.97 C84.0633333,10.9566667 89.5433333,5.26333333 96.3266667,5.26333333 C103.11,5.26333333 108.59,10.95 108.59,17.97 C108.59,24.99 103.09,30.6733333 96.3266667,30.6733333 Z" id="Shape" fill="url(#linearGradient-2)"></path>
                <path d="M0.326666667,16.9433333 L2.01666667,16.9433333 L2.01666667,21.9433333 C3.39666667,18.8033333 6.32666667,16.53 9.80666667,16.6666667 L9.80666667,18.53 L9.66,18.53 C5.59,18.53 2.04,21.5966667 2.04,27.32 L2.04,34.5233333 L0.326666667,34.5233333 L0.326666667,16.9433333 Z" id="Shape" fill="#FFFFFF"></path>
                <path d="M12.05,25.8133333 L12.05,25.7433333 C12.05,20.8133333 15.8766667,16.54 21.1166667,16.54 C26.3566667,16.54 30.1166667,20.7433333 30.1166667,25.6733333 L30.1166667,25.7433333 C30.1166667,30.6733333 26.29,34.9466667 21.05,34.9466667 C15.81,34.9466667 12.05,30.7333333 12.05,25.8133333 Z M28.29,25.8133333 L28.29,25.7433333 C28.29,21.5033333 25.1166667,18.1233333 21.05,18.1233333 C16.8766667,18.1233333 13.88,21.5366667 13.88,25.6733333 L13.88,25.7433333 C13.88,29.9833333 17.05,33.3633333 21.1166667,33.3633333 C25.29,33.3533333 28.29,29.94 28.29,25.8133333 Z" id="Shape" fill="#FFFFFF"></path>
                <polygon id="Shape" fill="#FFFFFF" points="35.5566667 9.35666667 37.2466667 9.35666667 37.2466667 34.5233333 35.5566667 34.5233333"></polygon>
                <path d="M42.69,25.7666667 L42.69,25.7 C42.69,20.5966667 46.2733333,16.53 51.0233333,16.53 C55.95,16.53 59.09,20.53 59.09,25.7333333 C59.0963515,25.9638453 59.0852085,26.194507 59.0566667,26.4233333 L44.4833333,26.4233333 C44.7933333,30.8 47.93,33.3533333 51.3766667,33.3533333 C54.1,33.3533333 55.96,32.1466667 57.41,30.5933333 L58.58,31.63 C56.79,33.56 54.6866667,34.9366667 51.3066667,34.9366667 C46.69,34.9366667 42.69,31.25 42.69,25.7666667 Z M57.2733333,24.9066667 C57.03,21.3566667 54.9966667,18.08 50.9633333,18.08 C47.4833333,18.08 44.7933333,21.01 44.4833333,24.9066667 L57.2733333,24.9066667 Z" id="Shape" fill="#FFFFFF"></path>
            </g>
        </g>
    </g>
</svg>