<svg aria-hidden="true" class="_3rzQWZqjnmWtmM2IDYNILT" viewBox="0 0 70 22" xmlns="http://www.w3.org/2000/svg"><linearGradient id="SVGID_1_" gradientUnits="userSpaceOnUse" x1="63.4606" y1="26.0577" x2="31.8368" y2="5.2323"><stop offset="0" class="_2YObQYplHNfejg75LphKMj"/><stop offset="1" class="_1AzI99slgM4UfAh_YLGtSx"/></linearGradient><linearGradient id="SVGID_2_" gradientUnits="userSpaceOnUse" x1="68.164" y1="18.9154" x2="36.5402" y2="-1.91"><stop offset="0" class="_2YObQYplHNfejg75LphKMj"/><stop offset="1" class="_1AzI99slgM4UfAh_YLGtSx"/></linearGradient><path fill="url(#SVGID_1_)" d="M41.1,21.7L41.1,21.7c-1,0-1.8-0.8-1.8-1.8V2.7c0-1,0.8-1.8,1.8-1.8h0c1,0,1.8,0.8,1.8,1.8v17.2 C42.9,20.9,42.1,21.7,41.1,21.7z"/><path fill="url(#SVGID_2_)" d="M68.4,18.1H64c0.3-0.3,0.6-0.5,0.9-0.9c0.4-0.5,0.8-1,1.2-1.6c0.3-0.6,0.6-1.3,0.8-2.1 c0.2-0.8,0.3-1.6,0.3-2.5c0-1.6-0.3-3-0.8-4.3c-0.5-1.3-1.3-2.4-2.3-3.3c-1-0.9-2.1-1.6-3.5-2.2c-1.3-0.5-2.8-0.8-4.3-0.8 s-3,0.3-4.4,0.8c-1.3,0.5-2.5,1.2-3.5,2.2c-1,0.9-1.7,2-2.3,3.3C45.6,8,45.4,9.4,45.4,11c0,1.7,0.3,3.1,0.8,4.4 c0.5,1.3,1.3,2.4,2.2,3.3c0.8,0.7,1.7,1.3,2.8,1.8c0.9,0.6,3.1,1,3.8,1h13.6c0.9,0,1.6-0.7,1.6-1.6v-0.3 C70,18.8,69.3,18.1,68.4,18.1z M56.3,18.5c-4,0-7.2-3.3-7.2-7.4c0-4.1,3.2-7.4,7.2-7.4c4,0,7.2,3.3,7.2,7.4 C63.4,15.1,60.2,18.5,56.3,18.5z"/><path fill="#ffffff" d="M0,10.4h1v2.9c0.8-1.8,2.5-3.2,4.6-3.1v1.1H5.5c-2.4,0-4.5,1.8-4.5,5.2v4.2H0V10.4z"/><path fill="#ffffff" d="M6.9,15.6L6.9,15.6c0-2.9,2.2-5.4,5.3-5.4c3.1,0,5.3,2.5,5.3,5.4v0c0,2.9-2.2,5.4-5.3,5.4 C9.1,21,6.9,18.5,6.9,15.6z M16.4,15.6L16.4,15.6c0-2.5-1.9-4.5-4.2-4.5c-2.4,0-4.2,2-4.2,4.4v0c0,2.5,1.9,4.5,4.2,4.5 C14.6,20,16.4,18,16.4,15.6z"/><path fill="#ffffff" d="M20.6,6h1v14.8h-1V6z"/><path fill="#ffffff" d="M24.8,15.6L24.8,15.6c0-3,2.1-5.4,4.9-5.4c2.9,0,4.7,2.3,4.7,5.4c0,0.2,0,0.2,0,0.4h-8.5 c0.2,2.6,2,4.1,4,4.1c1.6,0,2.7-0.7,3.5-1.6l0.7,0.6c-1.1,1.1-2.3,1.9-4.3,1.9C27.2,21,24.8,18.8,24.8,15.6z M33.4,15.1 c-0.1-2.1-1.3-4-3.7-4c-2,0-3.6,1.7-3.8,4H33.4z"/></svg>